<svg width="48" height="48" viewBox="0 0 48 48" fill="none" xmlns="http://www.w3.org/2000/svg">
<path fill-rule="evenodd" clip-rule="evenodd" d="M20.9458 0.199812C20.1912 0.3082 18.8124 0.599975 17.8821 0.848087L16.1905 1.2991V5.74045C16.1905 8.1833 16.1016 10.2363 15.9929 10.3023C15.8841 10.3685 14.799 9.81683 13.5811 9.07635C12.3632 8.33561 10.59 7.30412 9.64036 6.78427L7.91378 5.83857L6.32774 7.50883C3.58404 10.3981 2.19511 12.6645 0.830696 16.4773C-0.0479757 18.9335 -0.0430213 19.3843 0.869546 19.9611C3.36711 21.5397 6.22345 23.1411 7.25022 23.5385L8.47749 24.0134L7.57561 24.4575C7.07944 24.702 5.17217 25.7286 3.33687 26.7393L0 28.5767L0.162958 29.4544C0.361898 30.5264 1.58474 33.5957 2.61125 35.5988C3.81218 37.9425 7.28489 42.061 8.06006 42.061C8.52208 42.061 11.1153 40.6672 13.87 38.9383C14.9598 38.2544 15.8985 37.6944 15.9558 37.6944C16.0132 37.6942 16.0229 39.7631 15.9772 42.2922L15.8943 46.89L18.268 47.4391C22.7221 48.4691 30.2255 48.0124 31.6332 46.6257C32.1302 46.1361 32.1537 45.8603 32.0457 41.7739C31.9315 37.4438 31.9318 37.4414 32.4697 37.7887C34.7605 39.2666 36.9214 40.5747 38.3907 41.3722L40.123 42.3128L41.6923 40.6602C43.6027 38.6484 44.6376 37.1926 45.7684 34.9254C46.6129 33.232 48 29.5355 48 28.9779C48 28.6366 45.334 26.9334 42.1515 25.2421L39.8229 24.0044L41.0243 23.4332C43.7049 22.159 48 19.6288 48 19.3244C48 18.5262 46.8111 15.2987 45.826 13.4229C44.6637 11.2097 42.3512 8.04769 40.8721 6.64866L39.9553 5.78155L36.0253 8.11267L32.0953 10.4438V5.87401V1.30424L31.1175 1.02223C27.7775 0.0595757 24.0305 -0.243501 20.9458 0.199812ZM20.7012 15.6097C23.1484 16.6761 27.7186 16.1981 28.9331 14.749C29.6243 13.9243 29.8827 14.2559 29.7914 15.8491C29.6511 18.2947 30.3025 20.0379 31.9711 21.6815C32.7445 22.4433 33.8787 23.2765 34.4919 23.5328L35.6071 23.9995L34.9591 24.3293C33.5856 25.0289 31.6648 26.6219 30.9225 27.677C30.2464 28.6381 30.1238 29.0909 29.9666 31.2066C29.8675 32.5414 29.7301 33.689 29.6616 33.7568C29.5927 33.8243 29.0619 33.5413 28.4817 33.1272C25.7712 31.1929 21.3228 31.439 18.863 33.6589L18.2764 34.1885V32.1214C18.2764 28.803 16.8629 26.4362 13.8971 24.7872L12.5014 24.0113L13.8877 23.2644C15.8153 22.226 16.6575 21.3751 17.5268 19.5872C18.1572 18.2904 18.2761 17.7233 18.2761 16.0109L18.2764 13.9754L18.8662 14.5214C19.1908 14.8217 20.0163 15.3115 20.7012 15.6097Z" fill="#6495ED"/>
</svg>
